<svg xmlns="http://www.w3.org/2000/svg" viewBox="0 0 32 32" fill="none">
  <rect width="32" height="32" rx="8" fill="#16a34a"/>
  <path fill="#fff" d="M10 14.5c0-1.4 1-2.5 2.2-2.5s2.2 1.1 2.2 2.5-1 2.5-2.2 2.5S10 15.9 10 14.5Zm7.6 0c0-1.4 1-2.5 2.2-2.5s2.2 1.1 2.2 2.5-1 2.5-2.2 2.5-2.2-1.1-2.2-2.5ZM8.5 19.2c0-1.2.9-2.1 2-2.1s2 .9 2 2.1-.9 2.1-2 2.1-2-.9-2-2.1Zm11 0c0-1.2.9-2.1 2-2.1s2 .9 2 2.1-.9 2.1-2 2.1-2-.9-2-2.1Z"/>
  <path fill="#fff" d="M16 22.5c-2.8 0-5 1.4-5 3.2v.3h10v-.3c0-1.8-2.2-3.2-5-3.2Z"/>
</svg>
